# xmcd
#
# Track frame offsets: 
#        150
#        19042
#        31567
#        53801
#        67350
#        80490
#        99995
#        116507
#        136741
#        157161
#        174162
#        189667
#
# Disc length: 2754 seconds
#
# Revision: 0
# Processed by: cddbd v1.5.2PL0 Copyright (c) Steve Scherf et al.
# Submitted via: ExactAudioCopy v1.3
#
DISCID=950ac00c
DTITLE=Big Joe and The Dynaflows - Layin' In The Alley
DYEAR=1994
DGENRE=Blues Rock
TTITLE0=Big Legs
TTITLE1=That's It
TTITLE2=Don't Write Me Off
TTITLE3=Ever Since The World Began
TTITLE4=Shame, Shame
TTITLE5=Smells Like Bar-B-Q
TTITLE6=Trouble, Trouble
TTITLE7=Blue Monday Blues
TTITLE8=Oke-She-Moke-She-Pop
TTITLE9=Layin' In The Alley
TTITLE10=Don't Be Afraid
TTITLE11=Great, Great Pleasure
EXTD=
EXTT0=
EXTT1=
EXTT2=
EXTT3=
EXTT4=
EXTT5=
EXTT6=
EXTT7=
EXTT8=
EXTT9=
EXTT10=
EXTT11=
PLAYORDER=
